<svg width="29" height="27" viewBox="0 0 29 27" fill="none" xmlns="http://www.w3.org/2000/svg">
<path d="M12.0833 16.875L12.0833 13.5" stroke="white" stroke-width="2" stroke-linecap="round"/>
<path d="M9.66667 5.625L7.25 10.125M19.3333 5.625L21.75 10.125" stroke="white" stroke-width="2" stroke-linecap="round"/>
<path d="M16.9167 16.875L16.9167 13.5" stroke="white" stroke-width="2" stroke-linecap="round"/>
<path d="M3.625 10.125V10.125C4.54545 10.125 5.00568 10.125 5.39083 10.2946C5.6539 10.4104 5.88892 10.5816 6.07986 10.7965C6.3594 11.1111 6.50055 11.5491 6.78284 12.4252L8.77307 18.6018C9.20408 19.9394 9.41959 20.6082 9.94594 20.9916C10.4723 21.375 11.175 21.375 12.5803 21.375H16.4197C17.825 21.375 18.5277 21.375 19.0541 20.9916C19.5804 20.6082 19.7959 19.9394 20.2269 18.6018L22.2172 12.4252C22.4995 11.5491 22.6406 11.1111 22.9201 10.7965C23.1111 10.5816 23.3461 10.4104 23.6092 10.2946C23.9943 10.125 24.4545 10.125 25.375 10.125V10.125" stroke="white" stroke-width="2" stroke-linecap="round"/>
<path d="M3.625 10.125L25.375 10.125" stroke="white" stroke-width="2" stroke-linecap="round"/>
</svg>
