<svg width="24" height="24" viewBox="0 0 24 24" fill="none" xmlns="http://www.w3.org/2000/svg">
<path fill-rule="evenodd" clip-rule="evenodd" d="M19.7629 9.90377L20.6667 9C21.5254 8.14126 21.9548 7.71189 22.0965 7.20967C22.1966 6.85459 22.1966 6.47873 22.0965 6.12365C21.9548 5.62143 21.5254 5.19206 20.6667 4.33333C19.8079 3.47459 19.3786 3.04522 18.8764 2.90355C18.5213 2.80338 18.1454 2.80338 17.7903 2.90355C17.2881 3.04522 16.8588 3.47459 16 4.33333L14.8958 5.43752C16.1588 7.26119 17.8191 8.79163 19.7629 9.90377ZM18.3036 11.3631C16.4037 10.1938 14.7602 8.66451 13.4613 6.87209L4.02306 16.3103C3.598 16.7353 3.38547 16.9479 3.24574 17.209C3.106 17.4701 3.04706 17.7648 2.92917 18.3542L2.1471 22.2646C2.08058 22.5972 2.04732 22.7635 2.14193 22.8581C2.23653 22.9527 2.40283 22.9194 2.73541 22.8529L2.73544 22.8529L2.73545 22.8529L6.64577 22.0708L6.64578 22.0708C7.23522 21.953 7.52995 21.894 7.79104 21.7543C8.05214 21.6145 8.26467 21.402 8.68973 20.9769L18.3036 11.3631Z" fill="white"/>
</svg>
